<?xml version="1.0"?>
<svg viewBox="0 0 100.4 101" xmlns="http://www.w3.org/2000/svg"><g><path id="svg_3" d="m70.949997,29.77034c-0.781006,-0.781998 -2.047005,-0.781998 -2.828003,0l-17.954998,17.957001l-17.954998,-17.957001c-0.780998,-0.781998 -2.047001,-0.781998 -2.827999,0c-0.781002,0.781002 -0.781002,2.047001 0,2.828003l17.954998,17.956997l-17.954998,17.957005c-0.781002,0.779999 -0.781002,2.047005 0,2.828003c0.390999,0.389999 0.902,0.584999 1.413998,0.584999s1.023003,-0.195 1.414001,-0.584999l17.954998,-17.956005l17.954998,17.956005c0.390999,0.389999 0.902,0.584999 1.414001,0.584999s1.023003,-0.195 1.414001,-0.584999c0.780998,-0.780998 0.780998,-2.048004 0,-2.828003l-17.954998,-17.957005l17.954998,-17.956997c0.781998,-0.780003 0.781998,-2.047001 0,-2.828003zm-20.783001,-29.344997c-27.641998,0 -50.128998,22.487 -50.128998,50.126999c0.002,27.643002 22.491003,50.131001 50.133003,50.131001c27.638996,0 50.124996,-22.488998 50.124996,-50.131001c0,-27.639999 -22.487,-50.126999 -50.129002,-50.126999zm0.004005,96.259007l-0.002007,0c-25.434996,0 -46.128995,-20.695007 -46.130997,-46.131008c0,-25.434998 20.693001,-46.126998 46.128998,-46.126998s46.129009,20.693002 46.129009,46.126998c-0.000008,25.435001 -20.69101,46.131008 -46.125004,46.131008z"/></g></svg>