<?xml version="1.0"?>
<svg viewBox="0 0 50 50" xmlns="http://www.w3.org/2000/svg">
	<g>
		<path d="m40.244999,0.25l-30.413999,0c-5.283,0 -9.581,4.297 -9.581,9.58l0,10.120001l0,20.295002c0,5.283001 4.297999,9.579998 9.581,9.579998l30.414998,0c5.283001,0 9.579998,-4.296997 9.579998,-9.579998l0,-20.296001l0,-10.120002c-0.000999,-5.283 -4.298,-9.578999 -9.580997,-9.578999zm2.747997,5.712999l1.096001,-0.004l0,1.090999l0,7.312002l-8.375,0.026998l-0.028999,-8.401999l7.307999,-0.024zm-25.030994,13.986001c1.587999,-2.197002 4.164,-3.638 7.076,-3.638s5.487999,1.440998 7.073994,3.638c1.033001,1.433998 1.652,3.188 1.652,5.087997c0,4.811001 -3.917995,8.725002 -8.726995,8.725002c-4.812,0 -8.726,-3.914001 -8.726,-8.725002c0.001001,-1.899998 0.618,-3.653999 1.651001,-5.087997zm27.032997,20.295002c0,2.620998 -2.131001,4.75 -4.75,4.75l-30.413999,0c-2.62,0 -4.751001,-2.129002 -4.751001,-4.75l0,-20.295002l7.400001,0c-0.639,1.571999 -0.998,3.288998 -0.998,5.087997c0,7.473003 6.080002,13.557003 13.556002,13.557003c7.474995,0 13.554996,-6.084 13.554996,-13.557003c0,-1.799 -0.361,-3.515999 -1,-5.087997l7.402,0l0,20.295002z"/>
	</g>
</svg>