<?xml version="1.0"?>
<svg viewBox="0 0 24 24.3" xmlns="http://www.w3.org/2000/svg"><path fill="#a2d4ce" d="m21.444,0.416006c0,0 -1.325001,1.292999 -2.243,2.200997c-4.687,-3.423996 -11.292,-3.035996 -15.524999,1.196998c-2.469995,2.47 -3.622994,5.746999 -3.483994,8.983l3.999993,0c-0.141001,-2.212001 0.618,-4.467001 2.308,-6.158001c2.663,-2.663 6.735001,-3.042999 9.812,-1.162c-1.042,1.032 -2.245001,2.238 -2.245001,2.238c-0.841,1.009 0.104,1.592 0.584002,1.577l5.623999,-0.000999c0.297001,0 0.539,0.000999 0.539,0.000999s0.245001,0 0.543001,0l1.091999,0c0.298,0 0.540001,-0.243 0.540001,-0.540999l0,-7.730994c0.034,-0.706999 -0.742001,-1.393 -1.545,-0.604z"/><path fill="#a2d4ce" d="m2.555004,23.834c0,0 1.325996,-1.292999 2.242997,-2.201c4.688,3.424 11.292,3.036001 15.525999,-1.196999c2.470001,-2.471001 3.622,-5.747002 3.484001,-8.983001l-4.001001,0c0.142,2.210999 -0.616999,4.467 -2.307999,6.158999c-2.663,2.662001 -6.735001,3.043001 -9.811999,1.161001c1.041999,-1.032001 2.244998,-2.238001 2.244998,-2.238001c0.841,-1.01 -0.104,-1.591999 -0.584001,-1.577l-5.623999,0.001999c-0.297,0 -0.539999,-0.001999 -0.539999,-0.001999s-0.244999,0 -0.543,0l-1.089996,0c-0.298,0 -0.54,0.242001 -0.540999,0.541l0,7.732c-0.032999,0.705999 0.742999,1.391998 1.544998,0.602999z"/></svg>