<?xml version="1.0"?>
<svg viewBox="0 0 12 15" xmlns="http://www.w3.org/2000/svg">
  <g id="_680639056">
    <path fill="#000000" id="svg_2" d="m11.675502,10.197332c0,0.72109 -0.13439,1.352972 -0.410635,1.90308c-0.276244,0.542674 -0.64208,0.996143 -1.104978,1.352968c-0.552486,0.423733 -1.157239,0.735958 -1.806787,0.914371c-0.657012,0.185847 -1.49321,0.275054 -2.508595,0.275054l-5.845927,0l0,-14.525841l5.159049,0c1.075112,0 1.888912,0.037169 2.433936,0.126376c0.552488,0.081773 1.075113,0.252753 1.560406,0.512939c0.522625,0.282488 0.91086,0.654184 1.172173,1.122519c0.261312,0.468336 0.388234,1.011012 0.388234,1.620591c0,0.706221 -0.179185,1.338103 -0.537556,1.888211c-0.350905,0.550107 -0.851132,0.958973 -1.47828,1.21916l0,0.081772c0.903394,0.193281 1.620135,0.572411 2.157691,1.152255c0.545023,0.579845 0.813803,1.367837 0.813803,2.356545l0.007465,0zm-4.703619,-5.976854c0,-0.230452 -0.05973,-0.47577 -0.179187,-0.721089c-0.119456,-0.245318 -0.306108,-0.423731 -0.56742,-0.535241c-0.238914,-0.104075 -0.522624,-0.163546 -0.858597,-0.170979c-0.328506,-0.007434 -0.821265,-0.014868 -1.47828,-0.014868l-0.253846,0l0,3.077634l0.462896,0c0.627149,0 1.060181,-0.007433 1.314027,-0.022302c0.253846,-0.014868 0.507693,-0.081772 0.776471,-0.20815c0.291175,-0.13381 0.492759,-0.319658 0.604749,-0.564976c0.111991,-0.237885 0.164254,-0.520373 0.164254,-0.84003l0.014934,0zm0.92579,5.917385c0,-0.453468 -0.089593,-0.795429 -0.276244,-1.055614c-0.186651,-0.252754 -0.45543,-0.446034 -0.821266,-0.572412c-0.223982,-0.089205 -0.530091,-0.133809 -0.918325,-0.141244c-0.388235,-0.007434 -0.91086,-0.014868 -1.567873,-0.014868l-0.671945,0l0,3.635176l0.194117,0c0.955655,0 1.612669,-0.007432 1.978507,-0.022301c0.365837,-0.014867 0.739138,-0.096639 1.119909,-0.260186c0.328506,-0.141245 0.574886,-0.349394 0.731673,-0.631881c0.156786,-0.275055 0.231447,-0.587278 0.231447,-0.93667z"/>
  </g>
</svg>