<?xml version="1.0" encoding="UTF-8"?><!DOCTYPE svg PUBLIC "-//W3C//DTD SVG 1.1//EN" "http://www.w3.org/Graphics/SVG/1.1/DTD/svg11.dtd"><svg xmlns="http://www.w3.org/2000/svg" xmlns:xlink="http://www.w3.org/1999/xlink" xmlns:sketch="http://www.bohemiancoding.com/sketch/ns"><symbol id="arrow_right" viewBox="0 0 15 24.3">
	<g>
		<path fill="#ffffff" d="m0.143019,21.298409l9.17,-9.169999l-9.17,-9.17l2.83,-2.83l12,12l-12,12.000001l-2.83,-2.830002z"/>
	</g>
</symbol><symbol id="calendar" viewBox="0 0 32 32">
	<g id="calendar_1_">
		<path d="M29.334,3H25V1c0-0.553-0.447-1-1-1s-1,0.447-1,1v2h-6V1c0-0.553-0.448-1-1-1s-1,0.447-1,1v2H9V1   c0-0.553-0.448-1-1-1S7,0.447,7,1v2H2.667C1.194,3,0,4.193,0,5.666v23.667C0,30.806,1.194,32,2.667,32h26.667   C30.807,32,32,30.806,32,29.333V5.666C32,4.193,30.807,3,29.334,3z M30,29.333C30,29.701,29.701,30,29.334,30H2.667   C2.299,30,2,29.701,2,29.333V5.666C2,5.299,2.299,5,2.667,5H7v2c0,0.553,0.448,1,1,1s1-0.447,1-1V5h6v2c0,0.553,0.448,1,1,1   s1-0.447,1-1V5h6v2c0,0.553,0.447,1,1,1s1-0.447,1-1V5h4.334C29.701,5,30,5.299,30,5.666V29.333z" fill="#ff5a0f"/>
		<rect fill="#ff5a0f" height="3" width="4" x="7" y="12"/>
		<rect fill="#ff5a0f" height="3" width="4" x="7" y="17"/>
		<rect fill="#ff5a0f" height="3" width="4" x="7" y="22"/>
		<rect fill="#ff5a0f" height="3" width="4" x="14" y="22"/>
		<rect fill="#ff5a0f" height="3" width="4" x="14" y="17"/>
		<rect fill="#ff5a0f" height="3" width="4" x="14" y="12"/>
		<rect fill="#ff5a0f" height="3" width="4" x="21" y="22"/>
		<rect fill="#ff5a0f" height="3" width="4" x="21" y="17"/>
		<rect fill="#ff5a0f" height="3" width="4" x="21" y="12"/>
	</g>
</symbol><symbol id="check-input" viewBox="0 0 38 27">
	<g>
		<polygon fill="#ffffff" id="svg_2" points="33.941001892089844,0.3746357560157776 15.555999755859375,18.75963592529297 4.242998123168945,7.445636749267578 0,11.688636779785156 15.555999755859375,27.24463653564453 38.183998107910156,4.617635726928711 "/>
	</g>
</symbol><symbol id="check" viewBox="0 0 38 27">
	<g>
		<polygon fill="#3c9f3f" id="svg_2" points="33.941001892089844,0.3746357560157776 15.555999755859375,18.75963592529297 4.242998123168945,7.445636749267578 0,11.688636779785156 15.555999755859375,27.24463653564453 38.183998107910156,4.617635726928711 "/>
	</g>
</symbol><symbol id="clock" viewBox="0 0 141.732 141.732">
	<g fill="#202020">
		<path d="M113.326,70.191c0-2.97-2.377-5.376-5.307-5.376H75.543V32.387v-0.001c0-2.98-2.418-5.397-5.396-5.397   c-2.98,0-5.398,2.417-5.398,5.397V70.17c0,2.981,2.418,5.398,5.398,5.398h37.875C110.949,75.568,113.326,73.161,113.326,70.191    M129.533,70.157c0,32.798-26.584,59.386-59.375,59.386c-32.793,0-59.375-26.588-59.375-59.386s26.582-59.386,59.375-59.386   C102.949,10.771,129.533,37.359,129.533,70.157 M140.314,70.157C140.314,31.41,108.904,0,70.158,0C31.41,0,0,31.41,0,70.157   s31.41,70.157,70.158,70.157C108.904,140.314,140.314,108.904,140.314,70.157"/>
	</g>
</symbol><symbol id="close" viewBox="0 0 100.4 101"><g><path id="svg_3" d="m70.949997,29.77034c-0.781006,-0.781998 -2.047005,-0.781998 -2.828003,0l-17.954998,17.957001l-17.954998,-17.957001c-0.780998,-0.781998 -2.047001,-0.781998 -2.827999,0c-0.781002,0.781002 -0.781002,2.047001 0,2.828003l17.954998,17.956997l-17.954998,17.957005c-0.781002,0.779999 -0.781002,2.047005 0,2.828003c0.390999,0.389999 0.902,0.584999 1.413998,0.584999s1.023003,-0.195 1.414001,-0.584999l17.954998,-17.956005l17.954998,17.956005c0.390999,0.389999 0.902,0.584999 1.414001,0.584999s1.023003,-0.195 1.414001,-0.584999c0.780998,-0.780998 0.780998,-2.048004 0,-2.828003l-17.954998,-17.957005l17.954998,-17.956997c0.781998,-0.780003 0.781998,-2.047001 0,-2.828003zm-20.783001,-29.344997c-27.641998,0 -50.128998,22.487 -50.128998,50.126999c0.002,27.643002 22.491003,50.131001 50.133003,50.131001c27.638996,0 50.124996,-22.488998 50.124996,-50.131001c0,-27.639999 -22.487,-50.126999 -50.129002,-50.126999zm0.004005,96.259007l-0.002007,0c-25.434996,0 -46.128995,-20.695007 -46.130997,-46.131008c0,-25.434998 20.693001,-46.126998 46.128998,-46.126998s46.129009,20.693002 46.129009,46.126998c-0.000008,25.435001 -20.69101,46.131008 -46.125004,46.131008z"/></g></symbol><symbol id="fb" viewBox="0 0 22.8 48.3">
	<g>
		<path d="m22.448,15.398496l-7.645,0l0,-5.013994c0,-1.883 1.248003,-2.322 2.127003,-2.322c0.877001,0 5.394999,0 5.394999,0l0,-8.278l-7.429998,-0.029c-8.248001,0 -10.125,6.174 -10.125,10.125l0,5.517994l-4.770002,0l0,8.53l4.770002,0c0,10.947012 0,24.137011 0,24.137011l10.032997,0c0,0 0,-13.32 0,-24.137011l6.769999,0l0.875002,-8.53z"/>
	</g>
</symbol><symbol id="instagram" viewBox="0 0 50 50">
	<g>
		<path d="m40.244999,0.25l-30.413999,0c-5.283,0 -9.581,4.297 -9.581,9.58l0,10.120001l0,20.295002c0,5.283001 4.297999,9.579998 9.581,9.579998l30.414998,0c5.283001,0 9.579998,-4.296997 9.579998,-9.579998l0,-20.296001l0,-10.120002c-0.000999,-5.283 -4.298,-9.578999 -9.580997,-9.578999zm2.747997,5.712999l1.096001,-0.004l0,1.090999l0,7.312002l-8.375,0.026998l-0.028999,-8.401999l7.307999,-0.024zm-25.030994,13.986001c1.587999,-2.197002 4.164,-3.638 7.076,-3.638s5.487999,1.440998 7.073994,3.638c1.033001,1.433998 1.652,3.188 1.652,5.087997c0,4.811001 -3.917995,8.725002 -8.726995,8.725002c-4.812,0 -8.726,-3.914001 -8.726,-8.725002c0.001001,-1.899998 0.618,-3.653999 1.651001,-5.087997zm27.032997,20.295002c0,2.620998 -2.131001,4.75 -4.75,4.75l-30.413999,0c-2.62,0 -4.751001,-2.129002 -4.751001,-4.75l0,-20.295002l7.400001,0c-0.639,1.571999 -0.998,3.288998 -0.998,5.087997c0,7.473003 6.080002,13.557003 13.556002,13.557003c7.474995,0 13.554996,-6.084 13.554996,-13.557003c0,-1.799 -0.361,-3.515999 -1,-5.087997l7.402,0l0,20.295002z"/>
	</g>
</symbol><symbol id="mail" viewBox="0 0 439.371 331.46899">
  <g id="g2449">
    <path fill="none" stroke="#3c3d41" stroke-width="30.655001" id="path2451" d="m424.430481,316.528442l0,-300.813965l-408.716003,0l0,300.813965l408.716003,0z"/>
    <path transform="translate(151.06790161132812,146.9849853515625) translate(0,2.0414581298828125) translate(-144.9435272216797,-153.10935974121094) translate(-145.33050537109375,-145.33050537109375) " fill="none" stroke="#3c3d41" stroke-width="30.655001" id="path2453"/>
    <path fill="none" stroke="#3c3d41" stroke-width="30.655001" id="path2455" d="m21.170959,15.076584l176.319992,178.667984c13.069,13.170013 36.850006,13.014008 49.643005,0.120026l176.19899,-177.350021"/>
    <path fill="none" stroke="#3c3d41" stroke-width="30.655001" id="path2457" d="m31.308868,302.152588l135.094986,-138.106018"/>
    <path fill="none" stroke="#3c3d41" stroke-width="30.655001" id="path2459" d="m410.596008,300.560577l-131.452942,-134.598999"/>
  </g>
</symbol><symbol id="next" viewBox="0 0 512 512"><path d="M129.6,512c-4.1,0-8.1-1.6-11.1-4.8c-5.7-6.1-5.4-15.7,0.8-21.5l241.2-224.5L119,26.1  c-6-5.9-6.1-15.5-0.3-21.5c5.9-6,15.5-6.1,21.5-0.3L393,250.5c3,2.9,4.7,6.9,4.6,11.1c-0.1,4.2-1.8,8.1-4.8,10.9L139.9,507.9  C137,510.7,133.3,512,129.6,512z" fill="#6A6E7C"/></symbol><symbol id="phone" viewBox="0 0 18 18">
	<g fill="none" fill-rule="evenodd" id="Page-1" stroke="none" stroke-width="1">
		<g fill="#ff5a0f" id="Icons-Communication" transform="translate(-85.000000, -126.000000)">
			<g id="phone" transform="translate(85.000000, 126.000000)">
				<path d="M3.6,7.8 C5,10.6 7.4,12.9 10.2,14.4 L12.4,12.2 C12.7,11.9 13.1,11.8 13.4,12 C14.5,12.4 15.7,12.6 17,12.6 C17.6,12.6 18,13 18,13.6 L18,17 C18,17.6 17.6,18 17,18 C7.6,18 0,10.4 0,1 C0,0.4 0.4,0 1,0 L4.5,0 C5.1,0 5.5,0.4 5.5,1 C5.5,2.2 5.7,3.4 6.1,4.6 C6.2,4.9 6.1,5.3 5.9,5.6 L3.6,7.8 L3.6,7.8 Z" id="Shape"/>
			</g>
		</g>
	</g>
</symbol><symbol id="prev" viewBox="0 0 512 512"><path d="M382.5,512c-3.7,0-7.4-1.3-10.3-4.1L119.2,272.5c-3-2.8-4.8-6.8-4.8-10.9c-0.1-4.2,1.6-8.2,4.6-11.1  L371.9,4.3c6-5.8,15.6-5.7,21.5,0.3c5.8,6,5.7,15.6-0.3,21.5L151.6,261.2l241.2,224.5c6.1,5.7,6.5,15.3,0.8,21.5  C390.6,510.4,386.5,512,382.5,512z" fill="#6A6E7C"/></symbol><symbol id="sync" viewBox="0 0 24 24.3"><path fill="#a2d4ce" d="m21.444,0.416006c0,0 -1.325001,1.292999 -2.243,2.200997c-4.687,-3.423996 -11.292,-3.035996 -15.524999,1.196998c-2.469995,2.47 -3.622994,5.746999 -3.483994,8.983l3.999993,0c-0.141001,-2.212001 0.618,-4.467001 2.308,-6.158001c2.663,-2.663 6.735001,-3.042999 9.812,-1.162c-1.042,1.032 -2.245001,2.238 -2.245001,2.238c-0.841,1.009 0.104,1.592 0.584002,1.577l5.623999,-0.000999c0.297001,0 0.539,0.000999 0.539,0.000999s0.245001,0 0.543001,0l1.091999,0c0.298,0 0.540001,-0.243 0.540001,-0.540999l0,-7.730994c0.034,-0.706999 -0.742001,-1.393 -1.545,-0.604z"/><path fill="#a2d4ce" d="m2.555004,23.834c0,0 1.325996,-1.292999 2.242997,-2.201c4.688,3.424 11.292,3.036001 15.525999,-1.196999c2.470001,-2.471001 3.622,-5.747002 3.484001,-8.983001l-4.001001,0c0.142,2.210999 -0.616999,4.467 -2.307999,6.158999c-2.663,2.662001 -6.735001,3.043001 -9.811999,1.161001c1.041999,-1.032001 2.244998,-2.238001 2.244998,-2.238001c0.841,-1.01 -0.104,-1.591999 -0.584001,-1.577l-5.623999,0.001999c-0.297,0 -0.539999,-0.001999 -0.539999,-0.001999s-0.244999,0 -0.543,0l-1.089996,0c-0.298,0 -0.54,0.242001 -0.540999,0.541l0,7.732c-0.032999,0.705999 0.742999,1.391998 1.544998,0.602999z"/></symbol><symbol id="vk" viewBox="0 0 12 15">
  <g id="_680639056">
    <path fill="#000000" id="svg_2" d="m11.675502,10.197332c0,0.72109 -0.13439,1.352972 -0.410635,1.90308c-0.276244,0.542674 -0.64208,0.996143 -1.104978,1.352968c-0.552486,0.423733 -1.157239,0.735958 -1.806787,0.914371c-0.657012,0.185847 -1.49321,0.275054 -2.508595,0.275054l-5.845927,0l0,-14.525841l5.159049,0c1.075112,0 1.888912,0.037169 2.433936,0.126376c0.552488,0.081773 1.075113,0.252753 1.560406,0.512939c0.522625,0.282488 0.91086,0.654184 1.172173,1.122519c0.261312,0.468336 0.388234,1.011012 0.388234,1.620591c0,0.706221 -0.179185,1.338103 -0.537556,1.888211c-0.350905,0.550107 -0.851132,0.958973 -1.47828,1.21916l0,0.081772c0.903394,0.193281 1.620135,0.572411 2.157691,1.152255c0.545023,0.579845 0.813803,1.367837 0.813803,2.356545l0.007465,0zm-4.703619,-5.976854c0,-0.230452 -0.05973,-0.47577 -0.179187,-0.721089c-0.119456,-0.245318 -0.306108,-0.423731 -0.56742,-0.535241c-0.238914,-0.104075 -0.522624,-0.163546 -0.858597,-0.170979c-0.328506,-0.007434 -0.821265,-0.014868 -1.47828,-0.014868l-0.253846,0l0,3.077634l0.462896,0c0.627149,0 1.060181,-0.007433 1.314027,-0.022302c0.253846,-0.014868 0.507693,-0.081772 0.776471,-0.20815c0.291175,-0.13381 0.492759,-0.319658 0.604749,-0.564976c0.111991,-0.237885 0.164254,-0.520373 0.164254,-0.84003l0.014934,0zm0.92579,5.917385c0,-0.453468 -0.089593,-0.795429 -0.276244,-1.055614c-0.186651,-0.252754 -0.45543,-0.446034 -0.821266,-0.572412c-0.223982,-0.089205 -0.530091,-0.133809 -0.918325,-0.141244c-0.388235,-0.007434 -0.91086,-0.014868 -1.567873,-0.014868l-0.671945,0l0,3.635176l0.194117,0c0.955655,0 1.612669,-0.007432 1.978507,-0.022301c0.365837,-0.014867 0.739138,-0.096639 1.119909,-0.260186c0.328506,-0.141245 0.574886,-0.349394 0.731673,-0.631881c0.156786,-0.275055 0.231447,-0.587278 0.231447,-0.93667z"/>
  </g>
</symbol></svg>